<svg fill="none">
    <symbol id="product" xmlns="http://www.w3.org/2000/svg" width="30" height="30" viewBox="0 0 24 24" fill="none" stroke="currentColor" stroke-width="2" stroke-linecap="round" stroke-linejoin="round" class="feather feather-home">
        <path d="M3 9l9-7 9 7v11a2 2 0 0 1-2 2H5a2 2 0 0 1-2-2z"></path>
        <polyline points="9 22 9 12 15 12 15 22"></polyline>
    </symbol>

    <symbol id="history" xmlns="http://www.w3.org/2000/svg" width="30" height="30" viewBox="0 0 24 24" fill="none" stroke="currentColor" stroke-width="2" stroke-linecap="round" stroke-linejoin="round" class="feather feather-file-minus">
        <path d="M14 2H6a2 2 0 0 0-2 2v16a2 2 0 0 0 2 2h12a2 2 0 0 0 2-2V8z"></path>
        <polyline points="14 2 14 8 20 8"></polyline>
        <line x1="9" y1="15" x2="15" y2="15"></line>
    </symbol>

    <symbol id="admin" xmlns="http://www.w3.org/2000/svg" width="30" height="30" viewBox="0 0 24 24" fill="none" stroke="currentColor" stroke-width="2" stroke-linecap="round" stroke-linejoin="round" class="feather feather-hard-drive">
        <line x1="22" y1="12" x2="2" y2="12"></line>
        <path d="M5.45 5.11L2 12v6a2 2 0 0 0 2 2h16a2 2 0 0 0 2-2v-6l-3.45-6.89A2 2 0 0 0 16.76 4H7.24a2 2 0 0 0-1.79 1.11z"></path>
        <line x1="6" y1="16" x2="6.01" y2="16"></line>
        <line x1="10" y1="16" x2="10.01" y2="16"></line>
    </symbol>

    <symbol id="log-out" xmlns="http://www.w3.org/2000/svg" width="30" height="30" viewBox="0 0 24 24" fill="none" stroke="currentColor" stroke-width="2" stroke-linecap="round" stroke-linejoin="round" class="feather feather-log-out">
        <path d="M9 21H5a2 2 0 0 1-2-2V5a2 2 0 0 1 2-2h4"></path>
        <polyline points="16 17 21 12 16 7"></polyline>
        <line x1="21" y1="12" x2="9" y2="12"></line>
    </symbol>

    <symbol id="cart"  xmlns="http://www.w3.org/2000/svg" width="30" height="30" viewBox="0 0 24 24" fill="none" stroke="currentColor" stroke-width="2" stroke-linecap="round" stroke-linejoin="round" class="feather feather-shopping-cart">
        <circle cx="9" cy="21" r="1"></circle>
        <circle cx="20" cy="21" r="1"></circle>
        <path d="M1 1h4l2.68 13.39a2 2 0 0 0 2 1.61h9.72a2 2 0 0 0 2-1.61L23 6H6"></path>
    </symbol>

    <symbol id="back" xmlns="http://www.w3.org/2000/svg" width="30" height="30" viewBox="0 0 24 24" fill="none" stroke="currentColor" stroke-width="2" stroke-linecap="round" stroke-linejoin="round" class="feather feather-chevron-left">
    <polyline points="15 18 9 12 15 6"></polyline>
    </symbol>

    <symbol id="sidebar" xmlns="http://www.w3.org/2000/svg" width="24" height="24" viewBox="0 0 24 24" fill="none" stroke="currentColor" stroke-width="2" stroke-linecap="round" stroke-linejoin="round" class="feather feather-menu">
        <line x1="3" y1="12" x2="21" y2="12"></line>
        <line x1="3" y1="6" x2="21" y2="6"></line>
        <line x1="3" y1="18" x2="21" y2="18"></line>
    </symbol>

    <symbol id="delete" xmlns="http://www.w3.org/2000/svg" width="24" height="24" viewBox="0 0 24 24" fill="none" stroke="currentColor" stroke-width="2" stroke-linecap="round" stroke-linejoin="round" class="feather feather-trash-2">
        <polyline points="3 6 5 6 21 6"></polyline>
        <path d="M19 6v14a2 2 0 0 1-2 2H7a2 2 0 0 1-2-2V6m3 0V4a2 2 0 0 1 2-2h4a2 2 0 0 1 2 2v2"></path>
        <line x1="10" y1="11" x2="10" y2="17"></line>
        <line x1="14" y1="11" x2="14" y2="17"></line>
    </symbol>

    <symbol id="info" xmlns="http://www.w3.org/2000/svg" width="24" height="24" viewBox="0 0 24 24" fill="none" stroke="currentColor" stroke-width="2" stroke-linecap="round" stroke-linejoin="round" class="feather feather-info">
        <circle cx="12" cy="12" r="10"></circle>
        <line x1="12" y1="16" x2="12" y2="12"></line>
        <line x1="12" y1="8" x2="12.01" y2="8"></line>
    </symbol>

    <symbol id="edit" xmlns="http://www.w3.org/2000/svg" width="24" height="24" viewBox="0 0 24 24" fill="none" stroke="currentColor" stroke-width="2" stroke-linecap="round" stroke-linejoin="round" class="feather feather-edit">
        <path d="M11 4H4a2 2 0 0 0-2 2v14a2 2 0 0 0 2 2h14a2 2 0 0 0 2-2v-7"></path>
        <path d="M18.5 2.5a2.121 2.121 0 0 1 3 3L12 15l-4 1 1-4 9.5-9.5z"></path>
    </symbol>

    <symbol id="add" xmlns="http://www.w3.org/2000/svg" width="20" height="20" viewBox="0 0 24 24" fill="none" stroke="currentColor" stroke-width="2" stroke-linecap="round" stroke-linejoin="round" class="feather feather-plus">
        <line x1="12" y1="5" x2="12" y2="19"></line>
        <line x1="5" y1="12" x2="19" y2="12"></line>
    </symbol>
</svg>